<svg width="75" height="68" viewBox="0 0 75 68" fill="none" xmlns="http://www.w3.org/2000/svg">
<path d="M16.625 34.4917C16.625 32.5928 14.2267 31.7627 13.0529 33.2555L0.972144 48.6184C0.401674 49.3439 0.401673 50.3655 0.972143 51.0909L13.0529 66.4538C14.2267 67.9466 16.625 67.1165 16.625 65.2176V57.1401C16.625 56.0356 17.5204 55.1401 18.625 55.1401H43.8333C44.9379 55.1401 45.8333 54.2447 45.8333 53.1401V46.5692C45.8333 45.4646 44.9379 44.5692 43.8333 44.5692H18.625C17.5204 44.5692 16.625 43.6738 16.625 42.5692V34.4917ZM74.0279 19.3781C74.5983 18.6527 74.5983 17.6311 74.0279 16.9056L61.9472 1.54267C60.7733 0.0499494 58.375 0.879976 58.375 2.77893V10.8564C58.375 11.961 57.4796 12.8564 56.375 12.8564H31.1667C30.0621 12.8564 29.1667 13.7518 29.1667 14.8564V21.4273C29.1667 22.5319 30.0621 23.4273 31.1667 23.4273H56.375C57.4796 23.4273 58.375 24.3228 58.375 25.4273V33.5048C58.375 35.4037 60.7733 36.2338 61.9472 34.7411L74.0279 19.3781Z" fill="#70C4E8"/>
</svg>
