<svg width="41" height="40" fill="none" xmlns="http://www.w3.org/2000/svg"><path d="M11.375 3.241 8.445.308C3.524 4.062.286 9.846 0 16.41h4.1a17.328 17.328 0 0 1 7.275-13.169Zm25.395 13.17h4.1C40.562 9.845 37.324 4.06 32.425.307l-2.91 2.933c4.14 2.974 6.948 7.733 7.255 13.17Zm-4.038 1.025c0-6.297-3.36-11.57-9.223-12.964V3.077A3.072 3.072 0 0 0 20.435 0a3.072 3.072 0 0 0-3.075 3.077v1.395c-5.882 1.395-9.223 6.646-9.223 12.964v10.256l-4.1 4.103v2.051h32.795v-2.051l-4.1-4.103V17.436ZM20.436 40c.287 0 .553-.02.82-.082a4.16 4.16 0 0 0 2.951-2.42 4.12 4.12 0 0 0 .308-1.6h-8.199c.02 2.256 1.845 4.102 4.12 4.102Z" fill="#70C4E8"/></svg>