<svg width="87" height="57" viewBox="0 0 87 57" fill="none" xmlns="http://www.w3.org/2000/svg">
<path d="M32.5637 7.71096L29.0217 4.23453C23.0772 8.68339 19.1637 15.539 18.8169 23.3184H23.7707C24.1422 16.8761 27.5108 11.236 32.5637 7.71096ZM63.2525 23.3184H68.2063C67.8347 15.539 63.9212 8.68339 58.0014 4.23453L54.4842 7.71096C59.4876 11.236 62.8809 16.8761 63.2525 23.3184ZM58.373 24.5339C58.373 17.0706 54.3109 10.8227 47.2269 9.1696V7.51647C47.2269 5.49869 45.5674 3.86987 43.5116 3.86987C41.4558 3.86987 39.7962 5.49869 39.7962 7.51647V9.1696C32.6875 10.8227 28.6502 17.0463 28.6502 24.5339V36.6893L23.6964 41.5514V43.9825H63.3268V41.5514L58.373 36.6893V24.5339ZM43.5116 51.2757C43.8583 51.2757 44.1803 51.2514 44.5023 51.1784C46.1123 50.8381 47.4251 49.7684 48.0691 48.3098C48.3168 47.7263 48.4406 47.0942 48.4406 46.4135H38.533C38.5578 49.0877 40.7622 51.2757 43.5116 51.2757Z" fill="#0F83A0"/>
</svg>
