<svg width="35" height="40" fill="none" xmlns="http://www.w3.org/2000/svg"><path d="M32.82 33.21 7.878 7.467 2.605 2.03 0 4.636l5.744 5.744v.02c-1.067 2.03-1.641 4.43-1.641 7.015v10.257L0 31.774v2.052h28.164l4.103 4.102 2.605-2.605-2.051-2.113ZM16.41 40a4.088 4.088 0 0 0 4.103-4.103h-8.205A4.088 4.088 0 0 0 16.41 40Zm12.308-15.015v-7.55c0-6.317-3.364-11.568-9.23-12.963V3.077A3.073 3.073 0 0 0 16.41 0a3.073 3.073 0 0 0-3.077 3.077v1.395c-.307.061-.595.164-.861.246a7.44 7.44 0 0 0-.616.226h-.02c-.02 0-.02 0-.041.02-.472.185-.944.41-1.395.636 0 0-.02 0-.02.02l18.338 19.365Z" fill="#70C4E8"/></svg>