<svg width="361" height="361" viewBox="0 0 361 361" fill="none" xmlns="http://www.w3.org/2000/svg">
<path d="M308.113 52.8865L282.663 78.337C308.655 104.51 324.9 140.609 324.9 180.5C324.9 260.281 260.281 324.9 180.5 324.9C100.719 324.9 36.1 260.281 36.1 180.5C36.1 106.856 91.1525 46.208 162.45 37.3635V73.8245C111.188 82.4885 72.2 126.892 72.2 180.5C72.2 240.245 120.755 288.8 180.5 288.8C240.245 288.8 288.8 240.245 288.8 180.5C288.8 150.537 276.706 123.462 257.032 103.968L231.582 129.419C244.578 142.595 252.7 160.645 252.7 180.5C252.7 220.391 220.391 252.7 180.5 252.7C140.609 252.7 108.3 220.391 108.3 180.5C108.3 146.927 131.404 118.95 162.45 110.827V149.454C151.62 155.772 144.4 167.143 144.4 180.5C144.4 200.355 160.645 216.6 180.5 216.6C200.355 216.6 216.6 200.355 216.6 180.5C216.6 167.143 209.38 155.591 198.55 149.454V0H180.5C80.864 0 0 80.864 0 180.5C0 280.136 80.864 361 180.5 361C280.136 361 361 280.136 361 180.5C361 130.682 340.784 85.557 308.113 52.8865Z" fill="#1B4965"/>
</svg>
