<svg width="86" height="86" viewBox="0 0 86 86" fill="none" xmlns="http://www.w3.org/2000/svg">
<path d="M42.957 0C19.221 0 0 19.264 0 43C0 66.736 19.221 86 42.957 86C66.736 86 86 66.736 86 43C86 19.264 66.736 0 42.957 0ZM72.756 25.8H60.071C58.695 20.425 56.717 15.265 54.137 10.492C62.049 13.201 68.628 18.705 72.756 25.8ZM43 8.772C46.569 13.932 49.364 19.651 51.213 25.8H34.787C36.636 19.651 39.431 13.932 43 8.772ZM9.718 51.6C9.03 48.848 8.6 45.967 8.6 43C8.6 40.033 9.03 37.152 9.718 34.4H24.252C23.908 37.238 23.65 40.076 23.65 43C23.65 45.924 23.908 48.762 24.252 51.6H9.718ZM13.244 60.2H25.929C27.305 65.575 29.283 70.735 31.863 75.508C23.951 72.799 17.372 67.338 13.244 60.2ZM25.929 25.8H13.244C17.372 18.662 23.951 13.201 31.863 10.492C29.283 15.265 27.305 20.425 25.929 25.8ZM43 77.228C39.431 72.068 36.636 66.349 34.787 60.2H51.213C49.364 66.349 46.569 72.068 43 77.228ZM53.062 51.6H32.938C32.551 48.762 32.25 45.924 32.25 43C32.25 40.076 32.551 37.195 32.938 34.4H53.062C53.449 37.195 53.75 40.076 53.75 43C53.75 45.924 53.449 48.762 53.062 51.6ZM54.137 75.508C56.717 70.735 58.695 65.575 60.071 60.2H72.756C68.628 67.295 62.049 72.799 54.137 75.508ZM61.748 51.6C62.092 48.762 62.35 45.924 62.35 43C62.35 40.076 62.092 37.238 61.748 34.4H76.282C76.97 37.152 77.4 40.033 77.4 43C77.4 45.967 76.97 48.848 76.282 51.6H61.748Z" fill="#62B6CB"/>
</svg>
