<svg width="61" height="66" viewBox="0 0 61 66" fill="none" xmlns="http://www.w3.org/2000/svg">
<g clip-path="url(#clip0_507_4525)">
<path d="M28.3196 21.7288H32.3131V25.8463H28.3196V21.7288ZM28.3196 29.9638H32.3131V42.3163H28.3196V29.9638ZM30.3163 11.4351C19.2944 11.4351 10.349 20.6583 10.349 32.0226C10.349 43.3869 19.2944 52.6101 30.3163 52.6101C41.3383 52.6101 50.2836 43.3869 50.2836 32.0226C50.2836 20.6583 41.3383 11.4351 30.3163 11.4351ZM30.3163 48.4926C21.5107 48.4926 14.3425 41.1016 14.3425 32.0226C14.3425 22.9435 21.5107 15.5526 30.3163 15.5526C39.1219 15.5526 46.2902 22.9435 46.2902 32.0226C46.2902 41.1016 39.1219 48.4926 30.3163 48.4926Z" fill="white"/>
</g>
<defs>
<clipPath id="clip0_507_4525">
<rect width="60.6459" height="65.5113" fill="white" transform="translate(0 0.350586)"/>
</clipPath>
</defs>
</svg>
