<svg width="51" height="55" viewBox="0 0 51 55" fill="none" xmlns="http://www.w3.org/2000/svg">
<path d="M22.8881 13.0833H27.8752V18.175H22.8881V13.0833ZM22.8881 23.2666H27.8752V38.5416H22.8881V23.2666ZM25.3816 0.354126C11.6171 0.354126 0.445831 11.7595 0.445831 25.8125C0.445831 39.8655 11.6171 51.2708 25.3816 51.2708C39.1462 51.2708 50.3175 39.8655 50.3175 25.8125C50.3175 11.7595 39.1462 0.354126 25.3816 0.354126ZM25.3816 46.1791C14.385 46.1791 5.43299 37.0396 5.43299 25.8125C5.43299 14.5853 14.385 5.44579 25.3816 5.44579C36.3783 5.44579 45.3303 14.5853 45.3303 25.8125C45.3303 37.0396 36.3783 46.1791 25.3816 46.1791Z" fill="white"/>
</svg>
