<svg width="237" height="242" viewBox="0 0 237 242" fill="none" xmlns="http://www.w3.org/2000/svg">
<path fill-rule="evenodd" clip-rule="evenodd" d="M118.5 21.7178C91.6504 21.7178 67.3426 32.8303 49.7473 50.7969L34.9423 35.6795C56.3265 13.7828 85.8686 -2.28882e-05 118.5 -2.28882e-05L118.5 21.7178Z" fill="#CFD8DC"/>
<path fill-rule="evenodd" clip-rule="evenodd" d="M21.2692 121L-1.52588e-05 121C-1.52588e-05 87.68 13.498 57.5146 34.9423 35.6792L49.7474 50.7967C32.1521 68.7632 21.2692 93.5837 21.2692 121Z" fill="#CFD8DC"/>
<path fill-rule="evenodd" clip-rule="evenodd" d="M21.2692 121L-1.52588e-05 121C-1.52588e-05 154.32 13.498 184.485 34.9423 206.321L49.7474 191.203C32.1521 173.237 21.2692 148.416 21.2692 121Z" fill="#0F83A0"/>
<path fill-rule="evenodd" clip-rule="evenodd" d="M118.5 220.282C91.6504 220.282 67.3426 209.17 49.7473 191.203L34.9423 206.321C56.3265 228.217 85.8686 242 118.5 242L118.5 220.282Z" fill="#0F83A0"/>
<path fill-rule="evenodd" clip-rule="evenodd" d="M118.5 220.282C145.35 220.282 169.657 209.17 187.253 191.203L202.058 206.321C180.673 228.217 151.131 242 118.5 242L118.5 220.282Z" fill="#0F83A0"/>
<path fill-rule="evenodd" clip-rule="evenodd" d="M215.731 121L237 121C237 154.32 223.502 184.485 202.058 206.321L187.253 191.203C204.848 173.237 215.731 148.416 215.731 121Z" fill="#0F83A0"/>
<path fill-rule="evenodd" clip-rule="evenodd" d="M215.731 121L237 121C237 87.68 223.502 57.5146 202.058 35.6792L187.253 50.7967C204.848 68.7632 215.731 93.5837 215.731 121Z" fill="#0F83A0"/>
<path fill-rule="evenodd" clip-rule="evenodd" d="M118.5 21.7178C145.35 21.7178 169.657 32.8303 187.253 50.7969L202.058 35.6795C180.673 13.7828 151.131 -2.28882e-05 118.5 -2.28882e-05L118.5 21.7178Z" fill="#0F83A0"/>
<path d="M57.2993 124.333L67.9073 98.2212H58.0246V103.979H52.2673V92.6906H74.662V98.5839L64.462 124.333H57.2993ZM100.167 98.6292H85.7962L85.1162 108.648H85.4789C85.7811 107.892 86.1136 107.212 86.4762 106.608C86.8691 105.973 87.3225 105.444 87.8362 105.021C88.35 104.568 88.9696 104.22 89.6949 103.979C90.4202 103.737 91.2816 103.616 92.2789 103.616C93.6389 103.616 94.9082 103.843 96.0869 104.296C97.2656 104.749 98.2931 105.414 99.1696 106.291C100.046 107.137 100.741 108.195 101.255 109.464C101.769 110.703 102.026 112.108 102.026 113.68C102.026 115.282 101.754 116.778 101.21 118.168C100.696 119.528 99.91 120.707 98.8523 121.704C97.8247 122.701 96.5554 123.487 95.0442 124.061C93.5331 124.605 91.8105 124.877 89.8762 124.877C88.3349 124.877 86.9749 124.711 85.7962 124.379C84.6176 124.046 83.5749 123.608 82.6682 123.064C81.7616 122.49 80.9758 121.84 80.3109 121.115C79.646 120.389 79.0718 119.619 78.5882 118.803L83.5296 114.904C84.2247 116.143 85.0558 117.201 86.0229 118.077C86.99 118.923 88.2896 119.347 89.9216 119.347C91.5536 119.347 92.7776 118.878 93.5936 117.941C94.4398 117.004 94.8629 115.765 94.8629 114.224V113.861C94.8629 112.411 94.4398 111.262 93.5936 110.416C92.7474 109.57 91.5838 109.147 90.1029 109.147C88.8638 109.147 87.8362 109.403 87.0202 109.917C86.2345 110.401 85.63 110.884 85.2069 111.368L79.6309 110.597L80.8096 92.6906H100.167V98.6292ZM110.259 124.832C108.899 124.832 107.886 124.499 107.221 123.835C106.587 123.139 106.269 122.263 106.269 121.205V120.299C106.269 119.241 106.587 118.379 107.221 117.715C107.886 117.019 108.899 116.672 110.259 116.672C111.619 116.672 112.616 117.019 113.251 117.715C113.915 118.379 114.248 119.241 114.248 120.299V121.205C114.248 122.263 113.915 123.139 113.251 123.835C112.616 124.499 111.619 124.832 110.259 124.832ZM141.791 124.333H119.396V118.123L129.143 109.781C130.02 109.026 130.76 108.346 131.364 107.741C131.969 107.107 132.452 106.502 132.815 105.928C133.208 105.323 133.48 104.734 133.631 104.16C133.812 103.586 133.903 102.966 133.903 102.301V101.667C133.903 101.062 133.782 100.533 133.54 100.08C133.299 99.6266 132.981 99.2488 132.588 98.9466C132.196 98.6444 131.742 98.4177 131.228 98.2666C130.745 98.1155 130.246 98.0399 129.732 98.0399C128.977 98.0399 128.312 98.1608 127.738 98.4026C127.194 98.6444 126.71 98.9768 126.287 99.3999C125.894 99.7928 125.562 100.261 125.29 100.805C125.018 101.319 124.806 101.878 124.655 102.483L118.716 100.216C119.079 99.1279 119.578 98.1004 120.212 97.1332C120.847 96.1359 121.633 95.2746 122.57 94.5493C123.537 93.7937 124.67 93.2044 125.97 92.7812C127.269 92.3581 128.735 92.1466 130.367 92.1466C132.09 92.1466 133.616 92.3884 134.946 92.8719C136.276 93.3555 137.394 94.0204 138.3 94.8666C139.237 95.7128 139.948 96.7252 140.431 97.9039C140.915 99.0524 141.156 100.307 141.156 101.667C141.156 103.027 140.93 104.266 140.476 105.384C140.023 106.502 139.404 107.56 138.618 108.557C137.862 109.524 136.971 110.446 135.943 111.323C134.916 112.199 133.843 113.091 132.724 113.997L126.831 118.621H141.791V124.333ZM151.656 124.333L173.597 92.6906H179.581L157.64 124.333H151.656ZM153.968 110.099C151.308 110.099 149.284 109.343 147.893 107.832C146.503 106.321 145.808 104.084 145.808 101.123C145.808 98.1608 146.503 95.9244 147.893 94.4132C149.284 92.9021 151.308 92.1466 153.968 92.1466C156.628 92.1466 158.652 92.9021 160.043 94.4132C161.433 95.9244 162.128 98.1608 162.128 101.123C162.128 104.084 161.433 106.321 160.043 107.832C158.652 109.343 156.628 110.099 153.968 110.099ZM153.968 106.2C154.754 106.2 155.343 105.898 155.736 105.293C156.129 104.659 156.325 103.661 156.325 102.301V99.9439C156.325 98.5839 156.129 97.6017 155.736 96.9972C155.343 96.3626 154.754 96.0452 153.968 96.0452C153.182 96.0452 152.593 96.3626 152.2 96.9972C151.807 97.6017 151.611 98.5839 151.611 99.9439V102.301C151.611 103.661 151.807 104.659 152.2 105.293C152.593 105.898 153.182 106.2 153.968 106.2ZM177.269 124.877C174.61 124.877 172.585 124.122 171.195 122.611C169.804 121.099 169.109 118.863 169.109 115.901C169.109 112.939 169.804 110.703 171.195 109.192C172.585 107.681 174.61 106.925 177.269 106.925C179.929 106.925 181.954 107.681 183.344 109.192C184.734 110.703 185.429 112.939 185.429 115.901C185.429 118.863 184.734 121.099 183.344 122.611C181.954 124.122 179.929 124.877 177.269 124.877ZM177.269 120.979C178.055 120.979 178.644 120.676 179.037 120.072C179.43 119.437 179.627 118.44 179.627 117.08V114.723C179.627 113.363 179.43 112.38 179.037 111.776C178.644 111.141 178.055 110.824 177.269 110.824C176.484 110.824 175.894 111.141 175.501 111.776C175.108 112.38 174.912 113.363 174.912 114.723V117.08C174.912 118.44 175.108 119.437 175.501 120.072C175.894 120.676 176.484 120.979 177.269 120.979Z" fill="#0F83A0"/>
<path d="M70.326 155L67.326 145.693H69.3793L70.766 150.16L71.4993 153.08H71.5393L72.246 150.16L73.6327 145.693H75.6193L72.5927 155H70.326ZM83.855 155L83.1884 152.787H80.0817L79.415 155H77.3617L80.4284 145.693H82.935L85.9617 155H83.855ZM81.655 147.533H81.5884L80.5617 151.067H82.695L81.655 147.533ZM92.6057 155.16C91.9746 155.16 91.4057 155.062 90.899 154.867C90.3923 154.662 89.9612 154.364 89.6057 153.973C89.2501 153.573 88.9746 153.08 88.779 152.493C88.5835 151.898 88.4857 151.204 88.4857 150.413C88.4857 149.631 88.5835 148.938 88.779 148.333C88.9746 147.72 89.2501 147.209 89.6057 146.8C89.9612 146.382 90.3923 146.067 90.899 145.853C91.4057 145.64 91.9746 145.533 92.6057 145.533C93.4679 145.533 94.179 145.711 94.739 146.067C95.299 146.413 95.7479 146.964 96.0857 147.72L94.339 148.627C94.2146 148.236 94.019 147.924 93.7523 147.693C93.4946 147.453 93.1123 147.333 92.6057 147.333C92.0101 147.333 91.5301 147.529 91.1657 147.92C90.8101 148.302 90.6323 148.862 90.6323 149.6V151.093C90.6323 151.831 90.8101 152.396 91.1657 152.787C91.5301 153.169 92.0101 153.36 92.6057 153.36C93.1035 153.36 93.499 153.227 93.7923 152.96C94.0946 152.684 94.3168 152.356 94.459 151.973L96.1123 152.933C95.7657 153.644 95.3079 154.196 94.739 154.587C94.179 154.969 93.4679 155.16 92.6057 155.16ZM103.121 155.16C102.49 155.16 101.921 155.062 101.415 154.867C100.908 154.662 100.477 154.364 100.121 153.973C99.7657 153.573 99.4902 153.08 99.2946 152.493C99.0991 151.898 99.0013 151.204 99.0013 150.413C99.0013 149.631 99.0991 148.938 99.2946 148.333C99.4902 147.72 99.7657 147.209 100.121 146.8C100.477 146.382 100.908 146.067 101.415 145.853C101.921 145.64 102.49 145.533 103.121 145.533C103.984 145.533 104.695 145.711 105.255 146.067C105.815 146.413 106.264 146.964 106.601 147.72L104.855 148.627C104.73 148.236 104.535 147.924 104.268 147.693C104.01 147.453 103.628 147.333 103.121 147.333C102.526 147.333 102.046 147.529 101.681 147.92C101.326 148.302 101.148 148.862 101.148 149.6V151.093C101.148 151.831 101.326 152.396 101.681 152.787C102.046 153.169 102.526 153.36 103.121 153.36C103.619 153.36 104.015 153.227 104.308 152.96C104.61 152.684 104.832 152.356 104.975 151.973L106.628 152.933C106.281 153.644 105.824 154.196 105.255 154.587C104.695 154.969 103.984 155.16 103.121 155.16ZM109.686 155V153.387H110.886V147.307H109.686V145.693H114.113V147.307H112.913V153.387H114.113V155H109.686ZM120.641 150.6L119.748 148.733H119.708V155H117.801V145.693H120.015L122.561 150.093L123.455 151.96H123.495V145.693H125.401V155H123.188L120.641 150.6ZM135.183 155L134.517 152.787H131.41L130.743 155H128.69L131.757 145.693H134.263L137.29 155H135.183ZM132.983 147.533H132.917L131.89 151.067H134.023L132.983 147.533ZM143.585 147.493V155H141.558V147.493H139.038V145.693H146.105V147.493H143.585ZM149.492 155V145.693H155.825V147.493H151.518V149.4H155.212V151.187H151.518V153.2H155.825V155H149.492ZM159.59 145.693H163.097C163.71 145.693 164.27 145.791 164.777 145.987C165.284 146.182 165.715 146.476 166.07 146.867C166.426 147.249 166.702 147.733 166.897 148.32C167.093 148.898 167.19 149.573 167.19 150.347C167.19 151.12 167.093 151.8 166.897 152.387C166.702 152.964 166.426 153.449 166.07 153.84C165.715 154.222 165.284 154.511 164.777 154.707C164.27 154.902 163.71 155 163.097 155H159.59V145.693ZM163.097 153.2C163.702 153.2 164.177 153.031 164.524 152.693C164.87 152.356 165.044 151.813 165.044 151.067V149.627C165.044 148.88 164.87 148.338 164.524 148C164.177 147.662 163.702 147.493 163.097 147.493H161.617V153.2H163.097Z" fill="#0F83A0"/>
</svg>
