<svg width="111" height="111" viewBox="0 0 111 111" fill="none" xmlns="http://www.w3.org/2000/svg">
<path d="M55.5 9.25C29.97 9.25 9.25 29.97 9.25 55.5C9.25 81.03 29.97 101.75 55.5 101.75C81.03 101.75 101.75 81.03 101.75 55.5C101.75 29.97 81.03 9.25 55.5 9.25ZM55.5 23.125C63.1775 23.125 69.375 29.3225 69.375 37C69.375 44.6775 63.1775 50.875 55.5 50.875C47.8225 50.875 41.625 44.6775 41.625 37C41.625 29.3225 47.8225 23.125 55.5 23.125ZM55.5 88.8C43.9375 88.8 33.7162 82.88 27.75 73.9075C27.8887 64.7037 46.25 59.6625 55.5 59.6625C64.7037 59.6625 83.1112 64.7037 83.25 73.9075C77.2837 82.88 67.0625 88.8 55.5 88.8Z" fill="white"/>
</svg>
