<svg width="28" height="24" viewBox="0 0 28 24" fill="none" xmlns="http://www.w3.org/2000/svg">
<path d="M0.730449 21.0006C-0.0387821 22.3339 0.923504 24 2.46282 24H25.5372C27.0765 24 28.0388 22.3339 27.2696 21.0006L15.7324 1.00278C14.9627 -0.331296 13.0373 -0.331297 12.2676 1.00278L0.730449 21.0006ZM15.3636 18.5263C15.3636 19.2794 14.7531 19.8947 14 19.8947C13.2469 19.8947 12.6364 19.2794 12.6364 18.5263C12.6364 17.7732 13.2469 17.1579 14 17.1579C14.7531 17.1579 15.3636 17.7732 15.3636 18.5263ZM15.3636 13.0574C15.3636 13.8105 14.7531 14.4211 14 14.4211C13.2469 14.4211 12.6364 13.8105 12.6364 13.0574V10.311C12.6364 9.55789 13.2469 8.94737 14 8.94737C14.7531 8.94737 15.3636 9.55789 15.3636 10.311V13.0574Z" fill="#FFC700"/>
</svg>
